<svg xmlns="http://www.w3.org/2000/svg" xmlns:v="https://svgstorm.com"
viewBox = "0 0 512 512"
width="512"
height="512">
<g fill="None" fill-opacity="0.0" stroke="#000000" stroke-opacity="0.00" stroke-width="0.3"><path d="
M 0.00 357.00 
C 0.89 336.30 17.06 318.05 37.00 317.00
C 39.84 303.94 44.89 288.99 49.91 276.90 C 54.92 264.81 53.82 246.59 70.75 241.61 C 87.68 236.63 119.55 239.22 141.00 239.00 C 162.45 238.78 196.68 236.21 215.75 239.60 C 234.82 243.00 232.96 260.05 239.00 273.00
C 250.33 273.00 261.67 273.00 273.00 273.00
C 278.84 260.57 277.31 242.28 296.25 239.81 C 315.20 237.34 350.81 236.63 372.00 238.00 C 393.19 239.37 426.23 235.82 442.25 241.19 C 458.28 246.56 456.87 263.91 462.57 275.77 C 468.28 287.63 470.70 304.05 475.00 317.00
C 493.02 316.87 507.30 334.21 512.00 350.00
L 512.00 0.00
L 263.00 0.00
C 275.46 6.00 285.15 20.99 292.75 33.25 C 300.35 45.52 308.45 58.08 316.71 70.30 C 324.97 82.53 332.41 95.26 340.71 107.30 C 349.01 119.34 356.98 132.52 364.39 144.75 C 371.81 156.99 383.55 169.50 389.13 181.92 C 394.71 194.33 394.73 214.27 376.75 219.19 C 358.76 224.11 323.22 221.87 299.00 222.00 C 274.78 222.13 236.30 222.48 212.00 222.00 C 187.70 221.52 151.93 224.83 134.08 218.87 C 116.23 212.91 117.11 190.82 124.26 179.25 C 131.42 167.68 140.63 154.48 148.26 142.25 C 155.90 130.02 165.00 117.78 172.39 105.25 C 179.79 92.71 189.87 80.73 197.59 68.25 C 205.30 55.76 212.92 43.45 221.57 31.23 C 230.22 19.01 235.93 1.29 255.00 0.00
L 0.00 0.00
L 0.00 357.00 Z"/>
</g>
<g fill="None" fill-opacity="0.0" stroke="#000000" stroke-opacity="0.96" stroke-width="0.3"><path d="
M 263.00 0.00 
L 255.00 0.00
C 235.93 1.29 230.22 19.01 221.57 31.23 C 212.92 43.45 205.30 55.76 197.59 68.25 C 189.87 80.73 179.79 92.71 172.39 105.25 C 165.00 117.78 155.90 130.02 148.26 142.25 C 140.63 154.48 131.42 167.68 124.26 179.25 C 117.11 190.82 116.23 212.91 134.08 218.87 C 151.93 224.83 187.70 221.52 212.00 222.00 C 236.30 222.48 274.78 222.13 299.00 222.00 C 323.22 221.87 358.76 224.11 376.75 219.19 C 394.73 214.27 394.71 194.33 389.13 181.92 C 383.55 169.50 371.81 156.99 364.39 144.75 C 356.98 132.52 349.01 119.34 340.71 107.30 C 332.41 95.26 324.97 82.53 316.71 70.30 C 308.45 58.08 300.35 45.52 292.75 33.25 C 285.15 20.99 275.46 6.00 263.00 0.00
M 370.00 205.00 
C 295.41 203.33 216.57 203.33 142.00 205.00
C 128.35 192.42 144.87 182.88 150.24 172.23 C 155.60 161.58 163.95 150.87 170.70 140.70 C 177.44 130.52 183.53 118.69 191.09 109.08 C 198.65 99.47 203.32 86.43 211.26 77.25 C 219.20 68.07 223.51 54.14 231.80 45.75 C 240.08 37.36 242.18 19.17 254.75 17.40 C 267.32 15.62 271.33 36.79 278.39 44.75 C 285.46 52.72 293.17 66.66 299.19 76.25 C 305.21 85.84 314.96 97.47 320.59 107.75 C 326.22 118.04 335.68 128.76 341.75 139.25 C 347.82 149.75 355.79 160.33 362.24 170.77 C 368.68 181.21 381.59 192.29 370.00 205.00 Z"/>
</g>
<g fill="None" fill-opacity="0.0" stroke="#000000" stroke-opacity="0.01" stroke-width="0.3"><path d="
M 370.00 205.00 
C 381.59 192.29 368.68 181.21 362.24 170.77 C 355.79 160.33 347.82 149.75 341.75 139.25 C 335.68 128.76 326.22 118.04 320.59 107.75 C 314.96 97.47 305.21 85.84 299.19 76.25 C 293.17 66.66 285.46 52.72 278.39 44.75 C 271.33 36.79 267.32 15.62 254.75 17.40 C 242.18 19.17 240.08 37.36 231.80 45.75 C 223.51 54.14 219.20 68.07 211.26 77.25 C 203.32 86.43 198.65 99.47 191.09 109.08 C 183.53 118.69 177.44 130.52 170.70 140.70 C 163.95 150.87 155.60 161.58 150.24 172.23 C 144.87 182.88 128.35 192.42 142.00 205.00
C 216.57 203.33 295.41 203.33 370.00 205.00
M 258.00 59.00 
C 267.84 64.28 265.58 82.47 265.00 97.00 C 264.42 111.53 268.86 133.59 260.00 145.00
C 257.28 144.53 254.62 144.29 252.00 145.00
C 252.03 141.84 248.32 141.09 247.00 139.00
C 249.44 124.45 247.19 104.54 248.00 90.00 C 248.81 75.46 243.26 59.70 258.00 59.00
M 260.00 162.00 
C 267.70 167.11 264.34 180.42 255.30 179.64 C 246.26 178.87 245.83 167.26 252.00 162.00
C 254.45 163.04 257.15 162.93 260.00 162.00 Z"/>
</g>
<g fill="None" fill-opacity="0.0" stroke="#000000" stroke-opacity="0.96" stroke-width="0.3"><path d="
M 258.00 59.00 
C 243.26 59.70 248.81 75.46 248.00 90.00 C 247.19 104.54 249.44 124.45 247.00 139.00
C 248.32 141.09 252.03 141.84 252.00 145.00
C 254.62 144.29 257.28 144.53 260.00 145.00
C 268.86 133.59 264.42 111.53 265.00 97.00 C 265.58 82.47 267.84 64.28 258.00 59.00 Z"/>
</g>
<g fill="None" fill-opacity="0.0" stroke="#000000" stroke-opacity="0.94" stroke-width="0.3"><path d="
M 260.00 162.00 
C 257.15 162.93 254.45 163.04 252.00 162.00
C 245.83 167.26 246.26 178.87 255.30 179.64 C 264.34 180.42 267.70 167.11 260.00 162.00 Z"/>
</g>
<g fill="None" fill-opacity="0.0" stroke="#000000" stroke-opacity="0.98" stroke-width="0.3"><path d="
M 0.00 357.00 
L 0.00 420.00
C 1.93 428.45 7.62 435.25 17.00 435.00
C 17.83 448.12 13.23 473.50 26.25 476.75 C 39.28 479.99 60.94 479.91 75.25 476.81 C 89.55 473.70 84.17 448.93 85.00 435.00
C 93.67 435.00 102.33 435.00 111.00 435.00
C 109.44 451.44 110.88 469.05 128.00 469.00
C 128.32 486.41 124.34 506.52 140.00 512.00
L 185.00 512.00
C 199.40 505.98 195.98 486.74 196.00 469.00
C 236.00 469.00 276.00 469.00 316.00 469.00
C 316.31 487.06 311.95 506.48 328.00 512.00
L 372.00 512.00
C 387.85 506.80 383.55 486.19 384.00 469.00
C 401.20 469.36 402.52 451.39 401.00 435.00
C 409.67 435.00 418.33 435.00 427.00 435.00
C 425.35 448.47 424.48 460.54 429.58 469.77 C 434.67 479.00 447.56 477.60 460.00 477.00 C 472.44 476.40 485.61 480.12 491.57 471.23 C 497.53 462.34 493.99 448.52 495.00 435.00
C 503.32 436.04 508.29 428.56 512.00 424.00
L 512.00 350.00
C 507.30 334.21 493.02 316.87 475.00 317.00
C 470.70 304.05 468.28 287.63 462.57 275.77 C 456.87 263.91 458.28 246.56 442.25 241.19 C 426.23 235.82 393.19 239.37 372.00 238.00 C 350.81 236.63 315.20 237.34 296.25 239.81 C 277.31 242.28 278.84 260.57 273.00 273.00
C 261.67 273.00 250.33 273.00 239.00 273.00
C 232.96 260.05 234.82 243.00 215.75 239.60 C 196.68 236.21 162.45 238.78 141.00 239.00 C 119.55 239.22 87.68 236.63 70.75 241.61 C 53.82 246.59 54.92 264.81 49.91 276.90 C 44.89 288.99 39.84 303.94 37.00 317.00
C 17.06 318.05 0.89 336.30 0.00 357.00
M 214.00 256.00 
C 218.45 261.81 219.01 266.24 221.00 273.00
C 203.37 273.69 181.26 269.65 172.25 281.25 C 163.24 292.85 164.56 303.20 159.00 316.00
C 124.00 316.00 89.00 316.00 54.00 316.00
C 60.42 305.39 59.35 292.40 65.64 282.30 C 71.92 272.19 65.27 256.31 84.00 256.00 C 102.74 255.69 129.95 256.18 150.00 256.00 C 170.05 255.82 194.35 256.18 214.00 256.00
M 458.00 316.00 
C 423.00 316.00 388.00 316.00 353.00 316.00
C 347.69 303.68 348.80 293.19 339.70 281.30 C 330.60 269.41 308.65 273.91 291.00 273.00
C 292.98 266.34 293.47 261.93 298.00 256.00
C 317.53 256.15 341.96 255.87 362.00 256.00 C 382.04 256.13 409.27 255.80 428.00 256.00 C 446.73 256.20 439.93 272.06 446.19 282.25 C 452.45 292.44 451.74 305.20 458.00 316.00
M 347.00 350.00 
C 286.33 350.00 225.67 350.00 165.00 350.00
C 170.49 340.62 169.80 330.89 174.21 321.77 C 178.62 312.65 178.77 303.63 184.13 295.08 C 189.49 286.53 213.77 292.11 228.00 291.00 C 242.23 289.89 268.83 291.53 283.00 291.00 C 297.17 290.47 321.52 286.08 327.39 294.75 C 333.27 303.43 333.25 311.96 337.71 321.30 C 342.16 330.63 341.38 340.44 347.00 350.00
M 153.00 332.00 
C 151.77 339.02 149.09 342.40 148.00 350.00
C 132.51 353.34 102.00 341.25 102.00 361.00
C 103.16 363.16 107.19 363.78 107.00 367.00
C 110.67 366.19 115.68 367.54 120.00 367.00
C 116.11 372.54 113.05 375.65 113.00 383.00
C 111.02 383.95 109.06 385.75 107.00 384.00
C 106.84 386.64 103.98 388.62 102.00 390.00
C 102.18 394.91 105.58 401.01 111.00 401.00
C 111.00 407.00 111.00 413.00 111.00 419.00
C 79.67 419.00 48.33 419.00 17.00 419.00
C 23.08 390.55 2.55 339.58 35.77 333.43 C 68.99 327.27 117.05 335.07 153.00 332.00
M 495.00 419.00 
C 463.67 419.00 432.33 419.00 401.00 419.00
C 401.00 413.00 401.00 407.00 401.00 401.00
C 413.54 401.63 411.01 382.91 399.00 383.00
C 398.99 375.76 395.95 372.63 392.00 367.00
C 396.55 367.56 400.96 366.08 405.00 367.00
C 404.97 363.84 408.68 363.09 410.00 361.00
C 409.57 340.21 378.43 353.11 363.00 348.00
C 363.33 341.78 359.73 338.54 359.00 332.00
C 394.96 334.52 442.35 327.93 475.75 333.60 C 509.15 339.28 489.27 390.01 495.00 419.00
M 384.00 453.00 
C 298.67 453.00 213.33 453.00 128.00 453.00
C 130.60 430.38 123.61 402.09 130.13 383.08 C 136.65 364.07 155.52 366.88 178.00 367.00 C 200.48 367.12 232.67 366.94 256.00 367.00 C 279.33 367.06 311.60 366.97 334.00 367.00 C 356.40 367.03 375.36 363.92 382.13 382.92 C 388.90 401.91 380.93 430.86 384.00 453.00
M 69.00 435.00 
C 69.00 443.67 69.00 452.33 69.00 461.00
C 57.33 461.00 45.67 461.00 34.00 461.00
C 34.00 452.33 34.00 443.67 34.00 435.00
C 45.67 435.00 57.33 435.00 69.00 435.00
M 478.00 435.00 
C 478.00 443.67 478.00 452.33 478.00 461.00
C 466.33 461.00 454.67 461.00 443.00 461.00
C 443.00 452.33 443.00 443.67 443.00 435.00
C 454.67 435.00 466.33 435.00 478.00 435.00
M 180.00 469.00 
C 180.00 477.67 180.00 486.33 180.00 495.00
C 168.33 495.00 156.67 495.00 145.00 495.00
C 145.00 486.33 145.00 477.67 145.00 469.00
C 156.67 469.00 168.33 469.00 180.00 469.00
M 367.00 469.00 
C 367.00 477.67 367.00 486.33 367.00 495.00
C 355.33 495.00 343.67 495.00 332.00 495.00
C 332.00 486.33 332.00 477.67 332.00 469.00
C 343.67 469.00 355.33 469.00 367.00 469.00 Z"/>
</g>
<g fill="None" fill-opacity="0.0" stroke="#000000" stroke-opacity="0.01" stroke-width="0.3"><path d="
M 214.00 256.00 
C 194.35 256.18 170.05 255.82 150.00 256.00 C 129.95 256.18 102.74 255.69 84.00 256.00 C 65.27 256.31 71.92 272.19 65.64 282.30 C 59.35 292.40 60.42 305.39 54.00 316.00
C 89.00 316.00 124.00 316.00 159.00 316.00
C 164.56 303.20 163.24 292.85 172.25 281.25 C 181.26 269.65 203.37 273.69 221.00 273.00
C 219.01 266.24 218.45 261.81 214.00 256.00 Z"/>
</g>
<g fill="None" fill-opacity="0.0" stroke="#000000" stroke-opacity="0.01" stroke-width="0.3"><path d="
M 458.00 316.00 
C 451.74 305.20 452.45 292.44 446.19 282.25 C 439.93 272.06 446.73 256.20 428.00 256.00 C 409.27 255.80 382.04 256.13 362.00 256.00 C 341.96 255.87 317.53 256.15 298.00 256.00
C 293.47 261.93 292.98 266.34 291.00 273.00
C 308.65 273.91 330.60 269.41 339.70 281.30 C 348.80 293.19 347.69 303.68 353.00 316.00
C 388.00 316.00 423.00 316.00 458.00 316.00 Z"/>
</g>
<g fill="None" fill-opacity="0.0" stroke="#000000" stroke-opacity="0.01" stroke-width="0.3"><path d="
M 347.00 350.00 
C 341.38 340.44 342.16 330.63 337.71 321.30 C 333.25 311.96 333.27 303.43 327.39 294.75 C 321.52 286.08 297.17 290.47 283.00 291.00 C 268.83 291.53 242.23 289.89 228.00 291.00 C 213.77 292.11 189.49 286.53 184.13 295.08 C 178.77 303.63 178.62 312.65 174.21 321.77 C 169.80 330.89 170.49 340.62 165.00 350.00
C 225.67 350.00 286.33 350.00 347.00 350.00 Z"/>
</g>
<g fill="None" fill-opacity="0.0" stroke="#000000" stroke-opacity="0.04" stroke-width="0.3"><path d="
M 153.00 332.00 
C 117.05 335.07 68.99 327.27 35.77 333.43 C 2.55 339.58 23.08 390.55 17.00 419.00
C 48.33 419.00 79.67 419.00 111.00 419.00
C 111.00 413.00 111.00 407.00 111.00 401.00
C 105.58 401.01 102.18 394.91 102.00 390.00
C 103.98 388.62 106.84 386.64 107.00 384.00
C 109.06 385.75 111.02 383.95 113.00 383.00
C 113.05 375.65 116.11 372.54 120.00 367.00
C 115.68 367.54 110.67 366.19 107.00 367.00
C 107.19 363.78 103.16 363.16 102.00 361.00
C 102.00 341.25 132.51 353.34 148.00 350.00
C 149.09 342.40 151.77 339.02 153.00 332.00
M 62.00 349.00 
C 73.57 349.77 87.45 363.83 85.78 378.22 C 84.11 392.62 69.76 402.29 55.75 400.80 C 41.75 399.32 33.79 385.41 34.78 372.78 C 35.77 360.15 46.98 348.01 62.00 349.00 Z"/>
</g>
<g fill="None" fill-opacity="0.0" stroke="#000000" stroke-opacity="0.04" stroke-width="0.3"><path d="
M 495.00 419.00 
C 489.27 390.01 509.15 339.28 475.75 333.60 C 442.35 327.93 394.96 334.52 359.00 332.00
C 359.73 338.54 363.33 341.78 363.00 348.00
C 378.43 353.11 409.57 340.21 410.00 361.00
C 408.68 363.09 404.97 363.84 405.00 367.00
C 400.96 366.08 396.55 367.56 392.00 367.00
C 395.95 372.63 398.99 375.76 399.00 383.00
C 411.01 382.91 413.54 401.63 401.00 401.00
C 401.00 407.00 401.00 413.00 401.00 419.00
C 432.33 419.00 463.67 419.00 495.00 419.00
M 454.00 349.00 
C 466.17 349.81 478.34 361.62 477.98 375.03 C 477.61 388.43 467.53 400.07 452.97 400.98 C 438.42 401.89 425.58 386.77 426.67 373.33 C 427.76 359.88 439.94 348.07 454.00 349.00 Z"/>
</g>
<g fill="None" fill-opacity="0.0" stroke="#000000" stroke-opacity="0.97" stroke-width="0.3"><path d="
M 62.00 349.00 
C 46.98 348.01 35.77 360.15 34.78 372.78 C 33.79 385.41 41.75 399.32 55.75 400.80 C 69.76 402.29 84.11 392.62 85.78 378.22 C 87.45 363.83 73.57 349.77 62.00 349.00
M 64.00 367.00 
C 69.45 372.04 69.53 378.91 64.00 384.00
C 48.24 387.98 47.01 363.38 64.00 367.00 Z"/>
</g>
<g fill="None" fill-opacity="0.0" stroke="#000000" stroke-opacity="0.97" stroke-width="0.3"><path d="
M 454.00 349.00 
C 439.94 348.07 427.76 359.88 426.67 373.33 C 425.58 386.77 438.42 401.89 452.97 400.98 C 467.53 400.07 477.61 388.43 477.98 375.03 C 478.34 361.62 466.17 349.81 454.00 349.00
M 448.00 384.00 
C 442.55 378.96 442.47 372.09 448.00 367.00
C 464.67 363.10 463.93 387.92 448.00 384.00 Z"/>
</g>
<g fill="None" fill-opacity="0.0" stroke="#000000" stroke-opacity="0.06" stroke-width="0.3"><path d="
M 64.00 367.00 
C 47.01 363.38 48.24 387.98 64.00 384.00
C 69.53 378.91 69.45 372.04 64.00 367.00 Z"/>
</g>
<g fill="None" fill-opacity="0.0" stroke="#000000" stroke-opacity="0.03" stroke-width="0.3"><path d="
M 384.00 453.00 
C 380.93 430.86 388.90 401.91 382.13 382.92 C 375.36 363.92 356.40 367.03 334.00 367.00 C 311.60 366.97 279.33 367.06 256.00 367.00 C 232.67 366.94 200.48 367.12 178.00 367.00 C 155.52 366.88 136.65 364.07 130.13 383.08 C 123.61 402.09 130.60 430.38 128.00 453.00
C 213.33 453.00 298.67 453.00 384.00 453.00
M 165.00 384.00 
C 185.53 381.84 201.15 399.12 194.41 418.75 C 187.67 438.38 162.74 438.93 150.70 425.30 C 138.65 411.67 147.67 385.82 165.00 384.00
M 294.00 384.00 
C 294.14 386.33 296.61 388.94 299.00 389.00
C 301.14 406.63 272.29 401.32 257.00 401.00 C 241.71 400.68 211.16 407.62 213.00 389.00
C 215.33 388.86 217.94 386.39 218.00 384.00
C 242.26 384.03 269.64 384.00 294.00 384.00
M 336.00 384.00 
C 355.59 381.12 370.74 397.66 365.24 417.25 C 359.75 436.83 336.46 439.73 323.25 426.75 C 310.03 413.78 315.75 386.98 336.00 384.00
M 294.00 418.00 
C 302.12 427.03 298.36 436.57 285.00 436.00 C 271.64 435.42 252.35 436.24 239.00 436.00 C 225.65 435.76 212.67 437.95 213.00 424.00
C 214.16 421.84 218.19 421.22 218.00 418.00
C 242.06 419.65 269.36 419.66 294.00 418.00 Z"/>
</g>
<g fill="None" fill-opacity="0.0" stroke="#000000" stroke-opacity="0.06" stroke-width="0.3"><path d="
M 448.00 384.00 
C 463.93 387.92 464.67 363.10 448.00 367.00
C 442.47 372.09 442.55 378.96 448.00 384.00 Z"/>
</g>
<g fill="None" fill-opacity="0.0" stroke="#000000" stroke-opacity="0.97" stroke-width="0.3"><path d="
M 165.00 384.00 
C 147.67 385.82 138.65 411.67 150.70 425.30 C 162.74 438.93 187.67 438.38 194.41 418.75 C 201.15 399.12 185.53 381.84 165.00 384.00
M 168.00 401.00 
C 180.25 398.22 182.97 415.89 171.75 417.80 C 160.54 419.71 159.34 402.97 168.00 401.00 Z"/>
</g>
<g fill="None" fill-opacity="0.0" stroke="#000000" stroke-opacity="0.99" stroke-width="0.3"><path d="
M 294.00 384.00 
C 269.64 384.00 242.26 384.03 218.00 384.00
C 217.94 386.39 215.33 388.86 213.00 389.00
C 211.16 407.62 241.71 400.68 257.00 401.00 C 272.29 401.32 301.14 406.63 299.00 389.00
C 296.61 388.94 294.14 386.33 294.00 384.00 Z"/>
</g>
<g fill="None" fill-opacity="0.0" stroke="#000000" stroke-opacity="0.97" stroke-width="0.3"><path d="
M 336.00 384.00 
C 315.75 386.98 310.03 413.78 323.25 426.75 C 336.46 439.73 359.75 436.83 365.24 417.25 C 370.74 397.66 355.59 381.12 336.00 384.00
M 339.00 401.00 
C 348.87 398.39 354.44 413.26 344.25 417.59 C 334.07 421.93 327.10 404.15 339.00 401.00 Z"/>
</g>
<g fill="None" fill-opacity="0.0" stroke="#000000" stroke-opacity="0.07" stroke-width="0.3"><path d="
M 168.00 401.00 
C 159.34 402.97 160.54 419.71 171.75 417.80 C 182.97 415.89 180.25 398.22 168.00 401.00 Z"/>
</g>
<g fill="None" fill-opacity="0.0" stroke="#000000" stroke-opacity="0.07" stroke-width="0.3"><path d="
M 339.00 401.00 
C 327.10 404.15 334.07 421.93 344.25 417.59 C 354.44 413.26 348.87 398.39 339.00 401.00 Z"/>
</g>
<g fill="None" fill-opacity="0.0" stroke="#000000" stroke-opacity="0.95" stroke-width="0.3"><path d="
M 294.00 418.00 
C 269.36 419.66 242.06 419.65 218.00 418.00
C 218.19 421.22 214.16 421.84 213.00 424.00
C 212.67 437.95 225.65 435.76 239.00 436.00 C 252.35 436.24 271.64 435.42 285.00 436.00 C 298.36 436.57 302.12 427.03 294.00 418.00 Z"/>
</g>
<g fill="None" fill-opacity="0.0" stroke="#000000" stroke-opacity="0.01" stroke-width="0.3"><path d="
M 0.00 512.00 
L 140.00 512.00
C 124.34 506.52 128.32 486.41 128.00 469.00
C 110.88 469.05 109.44 451.44 111.00 435.00
C 102.33 435.00 93.67 435.00 85.00 435.00
C 84.17 448.93 89.55 473.70 75.25 476.81 C 60.94 479.91 39.28 479.99 26.25 476.75 C 13.23 473.50 17.83 448.12 17.00 435.00
C 7.62 435.25 1.93 428.45 0.00 420.00
L 0.00 512.00 Z"/>
</g>
<g fill="None" fill-opacity="0.0" stroke="#000000" stroke-opacity="0.01" stroke-width="0.3"><path d="
M 372.00 512.00 
L 512.00 512.00
L 512.00 424.00
C 508.29 428.56 503.32 436.04 495.00 435.00
C 493.99 448.52 497.53 462.34 491.57 471.23 C 485.61 480.12 472.44 476.40 460.00 477.00 C 447.56 477.60 434.67 479.00 429.58 469.77 C 424.48 460.54 425.35 448.47 427.00 435.00
C 418.33 435.00 409.67 435.00 401.00 435.00
C 402.52 451.39 401.20 469.36 384.00 469.00
C 383.55 486.19 387.85 506.80 372.00 512.00 Z"/>
</g>
<g fill="None" fill-opacity="0.0" stroke="#000000" stroke-opacity="0.04" stroke-width="0.3"><path d="
M 69.00 435.00 
C 57.33 435.00 45.67 435.00 34.00 435.00
C 34.00 443.67 34.00 452.33 34.00 461.00
C 45.67 461.00 57.33 461.00 69.00 461.00
C 69.00 452.33 69.00 443.67 69.00 435.00 Z"/>
</g>
<g fill="None" fill-opacity="0.0" stroke="#000000" stroke-opacity="0.04" stroke-width="0.3"><path d="
M 478.00 435.00 
C 466.33 435.00 454.67 435.00 443.00 435.00
C 443.00 443.67 443.00 452.33 443.00 461.00
C 454.67 461.00 466.33 461.00 478.00 461.00
C 478.00 452.33 478.00 443.67 478.00 435.00 Z"/>
</g>
<g fill="None" fill-opacity="0.0" stroke="#000000" stroke-opacity="0.04" stroke-width="0.3"><path d="
M 180.00 469.00 
C 168.33 469.00 156.67 469.00 145.00 469.00
C 145.00 477.67 145.00 486.33 145.00 495.00
C 156.67 495.00 168.33 495.00 180.00 495.00
C 180.00 486.33 180.00 477.67 180.00 469.00 Z"/>
</g>
<g fill="None" fill-opacity="0.0" stroke="#000000" stroke-opacity="0.01" stroke-width="0.3"><path d="
M 185.00 512.00 
L 328.00 512.00
C 311.95 506.48 316.31 487.06 316.00 469.00
C 276.00 469.00 236.00 469.00 196.00 469.00
C 195.98 486.74 199.40 505.98 185.00 512.00 Z"/>
</g>
<g fill="None" fill-opacity="0.0" stroke="#000000" stroke-opacity="0.04" stroke-width="0.3"><path d="
M 367.00 469.00 
C 355.33 469.00 343.67 469.00 332.00 469.00
C 332.00 477.67 332.00 486.33 332.00 495.00
C 343.67 495.00 355.33 495.00 367.00 495.00
C 367.00 486.33 367.00 477.67 367.00 469.00 Z"/>
</g>
<g fill="#000000" fill-opacity="0.00" stroke="None">
<path d="
M 0.00 357.00 
C 0.89 336.30 17.06 318.05 37.00 317.00
C 39.84 303.94 44.89 288.99 49.91 276.90 C 54.92 264.81 53.82 246.59 70.75 241.61 C 87.68 236.63 119.55 239.22 141.00 239.00 C 162.45 238.78 196.68 236.21 215.75 239.60 C 234.82 243.00 232.96 260.05 239.00 273.00
C 250.33 273.00 261.67 273.00 273.00 273.00
C 278.84 260.57 277.31 242.28 296.25 239.81 C 315.20 237.34 350.81 236.63 372.00 238.00 C 393.19 239.37 426.23 235.82 442.25 241.19 C 458.28 246.56 456.87 263.91 462.57 275.77 C 468.28 287.63 470.70 304.05 475.00 317.00
C 493.02 316.87 507.30 334.21 512.00 350.00
L 512.00 0.00
L 263.00 0.00
C 275.46 6.00 285.15 20.99 292.75 33.25 C 300.35 45.52 308.45 58.08 316.71 70.30 C 324.97 82.53 332.41 95.26 340.71 107.30 C 349.01 119.34 356.98 132.52 364.39 144.75 C 371.81 156.99 383.55 169.50 389.13 181.92 C 394.71 194.33 394.73 214.27 376.75 219.19 C 358.76 224.11 323.22 221.87 299.00 222.00 C 274.78 222.13 236.30 222.48 212.00 222.00 C 187.70 221.52 151.93 224.83 134.08 218.87 C 116.23 212.91 117.11 190.82 124.26 179.25 C 131.42 167.68 140.63 154.48 148.26 142.25 C 155.90 130.02 165.00 117.78 172.39 105.25 C 179.79 92.71 189.87 80.73 197.59 68.25 C 205.30 55.76 212.92 43.45 221.57 31.23 C 230.22 19.01 235.93 1.29 255.00 0.00
L 0.00 0.00
L 0.00 357.00 Z"/>
</g>
<g fill="#000000" fill-opacity="0.96" stroke="None">
<path d="
M 263.00 0.00 
L 255.00 0.00
C 235.93 1.29 230.22 19.01 221.57 31.23 C 212.92 43.45 205.30 55.76 197.59 68.25 C 189.87 80.73 179.79 92.71 172.39 105.25 C 165.00 117.78 155.90 130.02 148.26 142.25 C 140.63 154.48 131.42 167.68 124.26 179.25 C 117.11 190.82 116.23 212.91 134.08 218.87 C 151.93 224.83 187.70 221.52 212.00 222.00 C 236.30 222.48 274.78 222.13 299.00 222.00 C 323.22 221.87 358.76 224.11 376.75 219.19 C 394.73 214.27 394.71 194.33 389.13 181.92 C 383.55 169.50 371.81 156.99 364.39 144.75 C 356.98 132.52 349.01 119.34 340.71 107.30 C 332.41 95.26 324.97 82.53 316.71 70.30 C 308.45 58.08 300.35 45.52 292.75 33.25 C 285.15 20.99 275.46 6.00 263.00 0.00
M 370.00 205.00 
C 295.41 203.33 216.57 203.33 142.00 205.00
C 128.35 192.42 144.87 182.88 150.24 172.23 C 155.60 161.58 163.95 150.87 170.70 140.70 C 177.44 130.52 183.53 118.69 191.09 109.08 C 198.65 99.47 203.32 86.43 211.26 77.25 C 219.20 68.07 223.51 54.14 231.80 45.75 C 240.08 37.36 242.18 19.17 254.75 17.40 C 267.32 15.62 271.33 36.79 278.39 44.75 C 285.46 52.72 293.17 66.66 299.19 76.25 C 305.21 85.84 314.96 97.47 320.59 107.75 C 326.22 118.04 335.68 128.76 341.75 139.25 C 347.82 149.75 355.79 160.33 362.24 170.77 C 368.68 181.21 381.59 192.29 370.00 205.00 Z"/>
</g>
<g fill="#000000" fill-opacity="0.01" stroke="None">
<path d="
M 370.00 205.00 
C 381.59 192.29 368.68 181.21 362.24 170.77 C 355.79 160.33 347.82 149.75 341.75 139.25 C 335.68 128.76 326.22 118.04 320.59 107.75 C 314.96 97.47 305.21 85.84 299.19 76.25 C 293.17 66.66 285.46 52.72 278.39 44.75 C 271.33 36.79 267.32 15.62 254.75 17.40 C 242.18 19.17 240.08 37.36 231.80 45.75 C 223.51 54.14 219.20 68.07 211.26 77.25 C 203.32 86.43 198.65 99.47 191.09 109.08 C 183.53 118.69 177.44 130.52 170.70 140.70 C 163.95 150.87 155.60 161.58 150.24 172.23 C 144.87 182.88 128.35 192.42 142.00 205.00
C 216.57 203.33 295.41 203.33 370.00 205.00
M 258.00 59.00 
C 267.84 64.28 265.58 82.47 265.00 97.00 C 264.42 111.53 268.86 133.59 260.00 145.00
C 257.28 144.53 254.62 144.29 252.00 145.00
C 252.03 141.84 248.32 141.09 247.00 139.00
C 249.44 124.45 247.19 104.54 248.00 90.00 C 248.81 75.46 243.26 59.70 258.00 59.00
M 260.00 162.00 
C 267.70 167.11 264.34 180.42 255.30 179.64 C 246.26 178.87 245.83 167.26 252.00 162.00
C 254.45 163.04 257.15 162.93 260.00 162.00 Z"/>
</g>
<g fill="#000000" fill-opacity="0.96" stroke="None">
<path d="
M 258.00 59.00 
C 243.26 59.70 248.81 75.46 248.00 90.00 C 247.19 104.54 249.44 124.45 247.00 139.00
C 248.32 141.09 252.03 141.84 252.00 145.00
C 254.62 144.29 257.28 144.53 260.00 145.00
C 268.86 133.59 264.42 111.53 265.00 97.00 C 265.58 82.47 267.84 64.28 258.00 59.00 Z"/>
</g>
<g fill="#000000" fill-opacity="0.94" stroke="None">
<path d="
M 260.00 162.00 
C 257.15 162.93 254.45 163.04 252.00 162.00
C 245.83 167.26 246.26 178.87 255.30 179.64 C 264.34 180.42 267.70 167.11 260.00 162.00 Z"/>
</g>
<g fill="#000000" fill-opacity="0.98" stroke="None">
<path d="
M 0.00 357.00 
L 0.00 420.00
C 1.93 428.45 7.62 435.25 17.00 435.00
C 17.83 448.12 13.23 473.50 26.25 476.75 C 39.28 479.99 60.94 479.91 75.25 476.81 C 89.55 473.70 84.17 448.93 85.00 435.00
C 93.67 435.00 102.33 435.00 111.00 435.00
C 109.44 451.44 110.88 469.05 128.00 469.00
C 128.32 486.41 124.34 506.52 140.00 512.00
L 185.00 512.00
C 199.40 505.98 195.98 486.74 196.00 469.00
C 236.00 469.00 276.00 469.00 316.00 469.00
C 316.31 487.06 311.95 506.48 328.00 512.00
L 372.00 512.00
C 387.85 506.80 383.55 486.19 384.00 469.00
C 401.20 469.36 402.52 451.39 401.00 435.00
C 409.67 435.00 418.33 435.00 427.00 435.00
C 425.35 448.47 424.48 460.54 429.58 469.77 C 434.67 479.00 447.56 477.60 460.00 477.00 C 472.44 476.40 485.61 480.12 491.57 471.23 C 497.53 462.34 493.99 448.52 495.00 435.00
C 503.32 436.04 508.29 428.56 512.00 424.00
L 512.00 350.00
C 507.30 334.21 493.02 316.87 475.00 317.00
C 470.70 304.05 468.28 287.63 462.57 275.77 C 456.87 263.91 458.28 246.56 442.25 241.19 C 426.23 235.82 393.19 239.37 372.00 238.00 C 350.81 236.63 315.20 237.34 296.25 239.81 C 277.31 242.28 278.84 260.57 273.00 273.00
C 261.67 273.00 250.33 273.00 239.00 273.00
C 232.96 260.05 234.82 243.00 215.75 239.60 C 196.68 236.21 162.45 238.78 141.00 239.00 C 119.55 239.22 87.68 236.63 70.75 241.61 C 53.82 246.59 54.92 264.81 49.91 276.90 C 44.89 288.99 39.84 303.94 37.00 317.00
C 17.06 318.05 0.89 336.30 0.00 357.00
M 214.00 256.00 
C 218.45 261.81 219.01 266.24 221.00 273.00
C 203.37 273.69 181.26 269.65 172.25 281.25 C 163.24 292.85 164.56 303.20 159.00 316.00
C 124.00 316.00 89.00 316.00 54.00 316.00
C 60.42 305.39 59.35 292.40 65.64 282.30 C 71.92 272.19 65.27 256.31 84.00 256.00 C 102.74 255.69 129.95 256.18 150.00 256.00 C 170.05 255.82 194.35 256.18 214.00 256.00
M 458.00 316.00 
C 423.00 316.00 388.00 316.00 353.00 316.00
C 347.69 303.68 348.80 293.19 339.70 281.30 C 330.60 269.41 308.65 273.91 291.00 273.00
C 292.98 266.34 293.47 261.93 298.00 256.00
C 317.53 256.15 341.96 255.87 362.00 256.00 C 382.04 256.13 409.27 255.80 428.00 256.00 C 446.73 256.20 439.93 272.06 446.19 282.25 C 452.45 292.44 451.74 305.20 458.00 316.00
M 347.00 350.00 
C 286.33 350.00 225.67 350.00 165.00 350.00
C 170.49 340.62 169.80 330.89 174.21 321.77 C 178.62 312.65 178.77 303.63 184.13 295.08 C 189.49 286.53 213.77 292.11 228.00 291.00 C 242.23 289.89 268.83 291.53 283.00 291.00 C 297.17 290.47 321.52 286.08 327.39 294.75 C 333.27 303.43 333.25 311.96 337.71 321.30 C 342.16 330.63 341.38 340.44 347.00 350.00
M 153.00 332.00 
C 151.77 339.02 149.09 342.40 148.00 350.00
C 132.51 353.34 102.00 341.25 102.00 361.00
C 103.16 363.16 107.19 363.78 107.00 367.00
C 110.67 366.19 115.68 367.54 120.00 367.00
C 116.11 372.54 113.05 375.65 113.00 383.00
C 111.02 383.95 109.06 385.75 107.00 384.00
C 106.84 386.64 103.98 388.62 102.00 390.00
C 102.18 394.91 105.58 401.01 111.00 401.00
C 111.00 407.00 111.00 413.00 111.00 419.00
C 79.67 419.00 48.33 419.00 17.00 419.00
C 23.08 390.55 2.55 339.58 35.77 333.43 C 68.99 327.27 117.05 335.07 153.00 332.00
M 495.00 419.00 
C 463.67 419.00 432.33 419.00 401.00 419.00
C 401.00 413.00 401.00 407.00 401.00 401.00
C 413.54 401.63 411.01 382.91 399.00 383.00
C 398.99 375.76 395.95 372.63 392.00 367.00
C 396.55 367.56 400.96 366.08 405.00 367.00
C 404.97 363.84 408.68 363.09 410.00 361.00
C 409.57 340.21 378.43 353.11 363.00 348.00
C 363.33 341.78 359.73 338.54 359.00 332.00
C 394.96 334.52 442.35 327.93 475.75 333.60 C 509.15 339.28 489.27 390.01 495.00 419.00
M 384.00 453.00 
C 298.67 453.00 213.33 453.00 128.00 453.00
C 130.60 430.38 123.61 402.09 130.13 383.08 C 136.65 364.07 155.52 366.88 178.00 367.00 C 200.48 367.12 232.67 366.94 256.00 367.00 C 279.33 367.06 311.60 366.97 334.00 367.00 C 356.40 367.03 375.36 363.92 382.13 382.92 C 388.90 401.91 380.93 430.86 384.00 453.00
M 69.00 435.00 
C 69.00 443.67 69.00 452.33 69.00 461.00
C 57.33 461.00 45.67 461.00 34.00 461.00
C 34.00 452.33 34.00 443.67 34.00 435.00
C 45.67 435.00 57.33 435.00 69.00 435.00
M 478.00 435.00 
C 478.00 443.67 478.00 452.33 478.00 461.00
C 466.33 461.00 454.67 461.00 443.00 461.00
C 443.00 452.33 443.00 443.67 443.00 435.00
C 454.67 435.00 466.33 435.00 478.00 435.00
M 180.00 469.00 
C 180.00 477.67 180.00 486.33 180.00 495.00
C 168.33 495.00 156.67 495.00 145.00 495.00
C 145.00 486.33 145.00 477.67 145.00 469.00
C 156.67 469.00 168.33 469.00 180.00 469.00
M 367.00 469.00 
C 367.00 477.67 367.00 486.33 367.00 495.00
C 355.33 495.00 343.67 495.00 332.00 495.00
C 332.00 486.33 332.00 477.67 332.00 469.00
C 343.67 469.00 355.33 469.00 367.00 469.00 Z"/>
</g>
<g fill="#000000" fill-opacity="0.01" stroke="None">
<path d="
M 214.00 256.00 
C 194.35 256.18 170.05 255.82 150.00 256.00 C 129.95 256.18 102.74 255.69 84.00 256.00 C 65.27 256.31 71.92 272.19 65.64 282.30 C 59.35 292.40 60.42 305.39 54.00 316.00
C 89.00 316.00 124.00 316.00 159.00 316.00
C 164.56 303.20 163.24 292.85 172.25 281.25 C 181.26 269.65 203.37 273.69 221.00 273.00
C 219.01 266.24 218.45 261.81 214.00 256.00 Z"/>
</g>
<g fill="#000000" fill-opacity="0.01" stroke="None">
<path d="
M 458.00 316.00 
C 451.74 305.20 452.45 292.44 446.19 282.25 C 439.93 272.06 446.73 256.20 428.00 256.00 C 409.27 255.80 382.04 256.13 362.00 256.00 C 341.96 255.87 317.53 256.15 298.00 256.00
C 293.47 261.93 292.98 266.34 291.00 273.00
C 308.65 273.91 330.60 269.41 339.70 281.30 C 348.80 293.19 347.69 303.68 353.00 316.00
C 388.00 316.00 423.00 316.00 458.00 316.00 Z"/>
</g>
<g fill="#000000" fill-opacity="0.01" stroke="None">
<path d="
M 347.00 350.00 
C 341.38 340.44 342.16 330.63 337.71 321.30 C 333.25 311.96 333.27 303.43 327.39 294.75 C 321.52 286.08 297.17 290.47 283.00 291.00 C 268.83 291.53 242.23 289.89 228.00 291.00 C 213.77 292.11 189.49 286.53 184.13 295.08 C 178.77 303.63 178.62 312.65 174.21 321.77 C 169.80 330.89 170.49 340.62 165.00 350.00
C 225.67 350.00 286.33 350.00 347.00 350.00 Z"/>
</g>
<g fill="#000000" fill-opacity="0.04" stroke="None">
<path d="
M 153.00 332.00 
C 117.05 335.07 68.99 327.27 35.77 333.43 C 2.55 339.58 23.08 390.55 17.00 419.00
C 48.33 419.00 79.67 419.00 111.00 419.00
C 111.00 413.00 111.00 407.00 111.00 401.00
C 105.58 401.01 102.18 394.91 102.00 390.00
C 103.98 388.62 106.84 386.64 107.00 384.00
C 109.06 385.75 111.02 383.95 113.00 383.00
C 113.05 375.65 116.11 372.54 120.00 367.00
C 115.68 367.54 110.67 366.19 107.00 367.00
C 107.19 363.78 103.16 363.16 102.00 361.00
C 102.00 341.25 132.51 353.34 148.00 350.00
C 149.09 342.40 151.77 339.02 153.00 332.00
M 62.00 349.00 
C 73.57 349.77 87.45 363.83 85.78 378.22 C 84.11 392.62 69.76 402.29 55.75 400.80 C 41.75 399.32 33.79 385.41 34.78 372.78 C 35.77 360.15 46.98 348.01 62.00 349.00 Z"/>
</g>
<g fill="#000000" fill-opacity="0.04" stroke="None">
<path d="
M 495.00 419.00 
C 489.27 390.01 509.15 339.28 475.75 333.60 C 442.35 327.93 394.96 334.52 359.00 332.00
C 359.73 338.54 363.33 341.78 363.00 348.00
C 378.43 353.11 409.57 340.21 410.00 361.00
C 408.68 363.09 404.97 363.84 405.00 367.00
C 400.96 366.08 396.55 367.56 392.00 367.00
C 395.95 372.63 398.99 375.76 399.00 383.00
C 411.01 382.91 413.54 401.63 401.00 401.00
C 401.00 407.00 401.00 413.00 401.00 419.00
C 432.33 419.00 463.67 419.00 495.00 419.00
M 454.00 349.00 
C 466.17 349.81 478.34 361.62 477.98 375.03 C 477.61 388.43 467.53 400.07 452.97 400.98 C 438.42 401.89 425.58 386.77 426.67 373.33 C 427.76 359.88 439.94 348.07 454.00 349.00 Z"/>
</g>
<g fill="#000000" fill-opacity="0.97" stroke="None">
<path d="
M 62.00 349.00 
C 46.98 348.01 35.77 360.15 34.78 372.78 C 33.79 385.41 41.75 399.32 55.75 400.80 C 69.76 402.29 84.11 392.62 85.78 378.22 C 87.45 363.83 73.57 349.77 62.00 349.00
M 64.00 367.00 
C 69.45 372.04 69.53 378.91 64.00 384.00
C 48.24 387.98 47.01 363.38 64.00 367.00 Z"/>
</g>
<g fill="#000000" fill-opacity="0.97" stroke="None">
<path d="
M 454.00 349.00 
C 439.94 348.07 427.76 359.88 426.67 373.33 C 425.58 386.77 438.42 401.89 452.97 400.98 C 467.53 400.07 477.61 388.43 477.98 375.03 C 478.34 361.62 466.17 349.81 454.00 349.00
M 448.00 384.00 
C 442.55 378.96 442.47 372.09 448.00 367.00
C 464.67 363.10 463.93 387.92 448.00 384.00 Z"/>
</g>
<g fill="#000000" fill-opacity="0.06" stroke="None">
<path d="
M 64.00 367.00 
C 47.01 363.38 48.24 387.98 64.00 384.00
C 69.53 378.91 69.45 372.04 64.00 367.00 Z"/>
</g>
<g fill="#000000" fill-opacity="0.03" stroke="None">
<path d="
M 384.00 453.00 
C 380.93 430.86 388.90 401.91 382.13 382.92 C 375.36 363.92 356.40 367.03 334.00 367.00 C 311.60 366.97 279.33 367.06 256.00 367.00 C 232.67 366.94 200.48 367.12 178.00 367.00 C 155.52 366.88 136.65 364.07 130.13 383.08 C 123.61 402.09 130.60 430.38 128.00 453.00
C 213.33 453.00 298.67 453.00 384.00 453.00
M 165.00 384.00 
C 185.53 381.84 201.15 399.12 194.41 418.75 C 187.67 438.38 162.74 438.93 150.70 425.30 C 138.65 411.67 147.67 385.82 165.00 384.00
M 294.00 384.00 
C 294.14 386.33 296.61 388.94 299.00 389.00
C 301.14 406.63 272.29 401.32 257.00 401.00 C 241.71 400.68 211.16 407.62 213.00 389.00
C 215.33 388.86 217.94 386.39 218.00 384.00
C 242.26 384.03 269.64 384.00 294.00 384.00
M 336.00 384.00 
C 355.59 381.12 370.74 397.66 365.24 417.25 C 359.75 436.83 336.46 439.73 323.25 426.75 C 310.03 413.78 315.75 386.98 336.00 384.00
M 294.00 418.00 
C 302.12 427.03 298.36 436.57 285.00 436.00 C 271.64 435.42 252.35 436.24 239.00 436.00 C 225.65 435.76 212.67 437.95 213.00 424.00
C 214.16 421.84 218.19 421.22 218.00 418.00
C 242.06 419.65 269.36 419.66 294.00 418.00 Z"/>
</g>
<g fill="#000000" fill-opacity="0.06" stroke="None">
<path d="
M 448.00 384.00 
C 463.93 387.92 464.67 363.10 448.00 367.00
C 442.47 372.09 442.55 378.96 448.00 384.00 Z"/>
</g>
<g fill="#000000" fill-opacity="0.97" stroke="None">
<path d="
M 165.00 384.00 
C 147.67 385.82 138.65 411.67 150.70 425.30 C 162.74 438.93 187.67 438.38 194.41 418.75 C 201.15 399.12 185.53 381.84 165.00 384.00
M 168.00 401.00 
C 180.25 398.22 182.97 415.89 171.75 417.80 C 160.54 419.71 159.34 402.97 168.00 401.00 Z"/>
</g>
<g fill="#000000" fill-opacity="0.99" stroke="None">
<path d="
M 294.00 384.00 
C 269.64 384.00 242.26 384.03 218.00 384.00
C 217.94 386.39 215.33 388.86 213.00 389.00
C 211.16 407.62 241.71 400.68 257.00 401.00 C 272.29 401.32 301.14 406.63 299.00 389.00
C 296.61 388.94 294.14 386.33 294.00 384.00 Z"/>
</g>
<g fill="#000000" fill-opacity="0.97" stroke="None">
<path d="
M 336.00 384.00 
C 315.75 386.98 310.03 413.78 323.25 426.75 C 336.46 439.73 359.75 436.83 365.24 417.25 C 370.74 397.66 355.59 381.12 336.00 384.00
M 339.00 401.00 
C 348.87 398.39 354.44 413.26 344.25 417.59 C 334.07 421.93 327.10 404.15 339.00 401.00 Z"/>
</g>
<g fill="#000000" fill-opacity="0.07" stroke="None">
<path d="
M 168.00 401.00 
C 159.34 402.97 160.54 419.71 171.75 417.80 C 182.97 415.89 180.25 398.22 168.00 401.00 Z"/>
</g>
<g fill="#000000" fill-opacity="0.07" stroke="None">
<path d="
M 339.00 401.00 
C 327.10 404.15 334.07 421.93 344.25 417.59 C 354.44 413.26 348.87 398.39 339.00 401.00 Z"/>
</g>
<g fill="#000000" fill-opacity="0.95" stroke="None">
<path d="
M 294.00 418.00 
C 269.36 419.66 242.06 419.65 218.00 418.00
C 218.19 421.22 214.16 421.84 213.00 424.00
C 212.67 437.95 225.65 435.76 239.00 436.00 C 252.35 436.24 271.64 435.42 285.00 436.00 C 298.36 436.57 302.12 427.03 294.00 418.00 Z"/>
</g>
<g fill="#000000" fill-opacity="0.01" stroke="None">
<path d="
M 0.00 512.00 
L 140.00 512.00
C 124.34 506.52 128.32 486.41 128.00 469.00
C 110.88 469.05 109.44 451.44 111.00 435.00
C 102.33 435.00 93.67 435.00 85.00 435.00
C 84.17 448.93 89.55 473.70 75.25 476.81 C 60.94 479.91 39.28 479.99 26.25 476.75 C 13.23 473.50 17.83 448.12 17.00 435.00
C 7.62 435.25 1.93 428.45 0.00 420.00
L 0.00 512.00 Z"/>
</g>
<g fill="#000000" fill-opacity="0.01" stroke="None">
<path d="
M 372.00 512.00 
L 512.00 512.00
L 512.00 424.00
C 508.29 428.56 503.32 436.04 495.00 435.00
C 493.99 448.52 497.53 462.34 491.57 471.23 C 485.61 480.12 472.44 476.40 460.00 477.00 C 447.56 477.60 434.67 479.00 429.58 469.77 C 424.48 460.54 425.35 448.47 427.00 435.00
C 418.33 435.00 409.67 435.00 401.00 435.00
C 402.52 451.39 401.20 469.36 384.00 469.00
C 383.55 486.19 387.85 506.80 372.00 512.00 Z"/>
</g>
<g fill="#000000" fill-opacity="0.04" stroke="None">
<path d="
M 69.00 435.00 
C 57.33 435.00 45.67 435.00 34.00 435.00
C 34.00 443.67 34.00 452.33 34.00 461.00
C 45.67 461.00 57.33 461.00 69.00 461.00
C 69.00 452.33 69.00 443.67 69.00 435.00 Z"/>
</g>
<g fill="#000000" fill-opacity="0.04" stroke="None">
<path d="
M 478.00 435.00 
C 466.33 435.00 454.67 435.00 443.00 435.00
C 443.00 443.67 443.00 452.33 443.00 461.00
C 454.67 461.00 466.33 461.00 478.00 461.00
C 478.00 452.33 478.00 443.67 478.00 435.00 Z"/>
</g>
<g fill="#000000" fill-opacity="0.04" stroke="None">
<path d="
M 180.00 469.00 
C 168.33 469.00 156.67 469.00 145.00 469.00
C 145.00 477.67 145.00 486.33 145.00 495.00
C 156.67 495.00 168.33 495.00 180.00 495.00
C 180.00 486.33 180.00 477.67 180.00 469.00 Z"/>
</g>
<g fill="#000000" fill-opacity="0.01" stroke="None">
<path d="
M 185.00 512.00 
L 328.00 512.00
C 311.95 506.48 316.31 487.06 316.00 469.00
C 276.00 469.00 236.00 469.00 196.00 469.00
C 195.98 486.74 199.40 505.98 185.00 512.00 Z"/>
</g>
<g fill="#000000" fill-opacity="0.04" stroke="None">
<path d="
M 367.00 469.00 
C 355.33 469.00 343.67 469.00 332.00 469.00
C 332.00 477.67 332.00 486.33 332.00 495.00
C 343.67 495.00 355.33 495.00 367.00 495.00
C 367.00 486.33 367.00 477.67 367.00 469.00 Z"/>
</g>
</svg>